<svg width="18" height="19" viewBox="0 0 18 19" fill="none" xmlns="http://www.w3.org/2000/svg">
<path fill-rule="evenodd" clip-rule="evenodd" d="M3 0.125C1.34315 0.125 0 1.46815 0 3.125V5.45833C0 7.11519 1.34315 8.45833 3 8.45833H5C6.65685 8.45833 8 7.11519 8 5.45833V3.125C8 1.46815 6.65685 0.125 5 0.125H3ZM13 0.125C11.3431 0.125 10 1.46815 10 3.125V5.45833C10 7.11519 11.3431 8.45833 13 8.45833H15C16.6569 8.45833 18 7.11519 18 5.45833V3.125C18 1.46815 16.6569 0.125 15 0.125H13ZM0 13.5417C0 11.8848 1.34315 10.5417 3 10.5417H5C6.65685 10.5417 8 11.8848 8 13.5417V15.875C8 17.5319 6.65685 18.875 5 18.875H3C1.34315 18.875 0 17.5319 0 15.875V13.5417ZM13 10.5417C11.3431 10.5417 10 11.8848 10 13.5417V15.875C10 17.5319 11.3431 18.875 13 18.875H15C16.6569 18.875 18 17.5319 18 15.875V13.5417C18 11.8848 16.6569 10.5417 15 10.5417H13Z" fill="#105D8D"/>
</svg>
